<?xml version="1.0" encoding="UTF-8"?>
<svg version="1.1" xmlns="http://www.w3.org/2000/svg" width="1450" height="1441">
<path d="M0 0 C63.03 0 126.06 0 191 0 C191.02578125 30.19371094 191.0515625 60.38742187 191.078125 91.49609375 C191.10328622 110.60482379 191.129426 129.71354493 191.16015625 148.82226562 C191.1762478 158.86043248 191.19209119 168.89859968 191.20751953 178.93676758 C191.20946347 180.19483548 191.21140741 181.45290338 191.21341026 182.74909455 C191.24440516 203.04222014 191.26139829 223.33533443 191.27319422 243.62847923 C191.28561855 264.46489215 191.31314892 285.30124591 191.35461307 306.13762146 C191.37971169 318.9879723 191.39311993 331.83822497 191.39142957 344.68860067 C191.39139975 353.50843289 191.40608339 362.32816536 191.43216428 371.14795869 C191.44676771 376.23152104 191.45504973 381.31487882 191.44580269 386.39845848 C191.43746157 391.06318726 191.44781789 395.72750661 191.47233662 400.39217497 C191.47797891 402.06944251 191.47706981 403.74674941 191.46851245 405.42400461 C191.34202023 432.56710854 200.81243235 458.75834553 220.09765625 478.2578125 C239.63736155 496.71928372 265.10335634 507.57043059 292.1953125 507.1484375 C314.47567287 505.96925408 336.06814737 498.91305482 353 484 C353.7940625 483.34773438 354.588125 482.69546875 355.40625 482.0234375 C374.58947883 465.74137599 386.22114791 441.83194928 388.53404236 416.88018799 C389.21840972 408.29664353 389.17727781 399.70972024 389.20532227 391.10449219 C389.21505467 389.1906781 389.22520102 387.27686608 389.23572445 385.36305618 C389.26260491 380.26905863 389.28386991 375.17505259 389.30391693 370.08102417 C389.32364133 365.28918713 389.34850315 360.4973819 389.3729248 355.70556641 C389.44124102 341.7204017 389.50137788 327.735198 389.5625 313.75 C389.706875 282.4825 389.85125 251.215 390 219 C452.7 219 515.4 219 580 219 C580.08060607 268.98024055 580.08060607 268.98024055 580.09765625 290.03710938 C580.10949114 304.53606594 580.12335085 319.03499914 580.15087891 333.53393555 C580.17092397 344.09671547 580.18374259 354.6594763 580.18817699 365.22227472 C580.1907657 370.80601933 580.19677346 376.38970938 580.21146011 381.97343636 C580.22522048 387.24865428 580.22918614 392.52379613 580.22621536 397.7990303 C580.2267574 399.71637958 580.23062336 401.6337319 580.23841095 403.55106544 C580.30733263 421.42435445 579.33708815 439.36819891 576.25 457 C576.08153564 457.9794458 575.91307129 458.9588916 575.73950195 459.96801758 C568.6241344 499.58270758 553.43462355 539.13606046 530 572 C529.22420795 573.12297156 528.44952633 574.24671082 527.67578125 575.37109375 C521.91391687 583.67256932 515.65562243 591.40207634 509 599 C508.33097656 599.78117188 507.66195313 600.56234375 506.97265625 601.3671875 C495.78595522 614.17097601 483.63037989 626.79966301 470 637 C469.34660645 637.50273438 468.69321289 638.00546875 468.02001953 638.5234375 C456.19418998 647.62143888 443.99622902 655.6761305 431 663 C430.18370117 663.4650293 429.36740234 663.93005859 428.52636719 664.40917969 C386.39059396 688.19899396 338.54909304 699.4926408 290.375 699.3125 C289.36153503 699.31067719 288.34807007 699.30885437 287.30389404 699.30697632 C272.322394 699.26163154 257.75729654 698.79184735 243 696 C242.0419043 695.82839355 241.08380859 695.65678711 240.09667969 695.47998047 C193.69738809 687.05947977 150.04883784 668.35533837 113 639 C111.64068359 637.92878906 111.64068359 637.92878906 110.25390625 636.8359375 C93.50158598 623.38655697 77.01053576 608.13525271 64 591 C63.07329524 589.8135063 62.14618345 588.62733044 61.21875 587.44140625 C19.87534382 534.02265101 -0.2470275 469.47321719 -0.12025452 402.25135803 C-0.12069157 400.50599589 -0.12156893 398.76063381 -0.12284368 397.01527208 C-0.12506233 392.2604928 -0.12110371 387.50573637 -0.11606562 382.75095999 C-0.11172322 377.60802632 -0.11321022 372.4650938 -0.1139679 367.32215881 C-0.11449074 358.42535665 -0.11136903 349.52856186 -0.10573006 340.63176155 C-0.09758252 327.76868336 -0.09499651 314.9056087 -0.09374207 302.0425282 C-0.09155665 281.17003306 -0.08491043 260.29754184 -0.07543945 239.42504883 C-0.06625212 219.15649434 -0.05918922 198.88794092 -0.05493164 178.61938477 C-0.05466364 177.35605346 -0.05439565 176.09272215 -0.05411953 174.79110807 C-0.05203995 164.91015675 -0.05008308 155.0292054 -0.04816496 145.14825404 C-0.0387414 96.76549909 -0.01862069 48.38275397 0 0 Z " fill="#FFFFFF" transform="translate(493,417)"/>
<path d="M0 0 C0 63.36 0 126.72 0 192 C-12.87 192.33 -25.74 192.66 -39 193 C-53.17046992 195.18444697 -53.17046992 195.18444697 -66.9375 198.625 C-67.75758545 198.87733398 -68.5776709 199.12966797 -69.42260742 199.38964844 C-105.26303724 210.9150481 -135.25468682 236.65111649 -152.87109375 269.78125 C-158.37195056 280.5057789 -162.87658037 291.43709637 -165.875 303.125 C-166.16165527 304.23149902 -166.16165527 304.23149902 -166.45410156 305.36035156 C-169.91928995 319.9946408 -170.30198546 334.87214797 -170.31884766 349.83032227 C-170.32817158 351.7539918 -170.33834379 353.67765737 -170.34928894 355.60131836 C-170.37632565 360.76749394 -170.39165918 365.93364269 -170.40471697 371.09986997 C-170.42046418 376.51973082 -170.44721673 381.93953774 -170.4727478 387.35935974 C-170.5193321 397.59752926 -170.55617399 407.83570915 -170.58942068 418.07392973 C-170.63497607 431.92653083 -170.6957739 445.77906478 -170.75566864 459.63160992 C-170.84948269 481.42103942 -170.92309822 503.21048903 -171 525 C-233.7 525 -296.4 525 -361 525 C-361.1209091 474.54955739 -361.1209091 474.54955739 -361.14648438 453.23828125 C-361.16421294 438.58411471 -361.18493426 423.9300003 -361.22631836 409.27587891 C-361.25645751 398.59840002 -361.27563042 387.92096386 -361.28226548 377.24344361 C-361.28613674 371.60299577 -361.29506971 365.96267004 -361.31719017 360.32226181 C-361.42710643 331.15958357 -361.25082211 302.26877457 -355.375 273.5625 C-355.12266602 272.30356934 -354.87033203 271.04463867 -354.61035156 269.74755859 C-342.22879845 209.57814517 -313.60600892 154.12821073 -272 109 C-271.19691406 108.09378906 -270.39382813 107.18757812 -269.56640625 106.25390625 C-258.7415562 94.1422984 -246.85471201 82.93755791 -234 73 C-233.31518555 72.46439453 -232.63037109 71.92878906 -231.92480469 71.37695312 C-162.87988731 17.55522743 -86.59055635 0 0 0 Z " fill="#FFFFFF" transform="translate(465,417)"/>
<path d="M0 0 C63.03 0 126.06 0 191 0 C191 100.32 191 200.64 191 304 C127.97 304 64.94 304 0 304 C0 203.68 0 103.36 0 0 Z " fill="#FFFFFF" transform="translate(1106,636)"/>
<path d="M0 0 C63.03 0 126.06 0 191 0 C191 62.7 191 125.4 191 190 C127.97 190 64.94 190 0 190 C0 127.3 0 64.6 0 0 Z " fill="#FFFFFF" transform="translate(1106,417)"/>
</svg>
